<?xml version="1.0" encoding="UTF-8"?>
<svg width="42px" height="42px" viewBox="0 0 42 42" version="1.1" xmlns="http://www.w3.org/2000/svg" xmlns:xlink="http://www.w3.org/1999/xlink">
    <title>behance</title>
    <g id="Page-1" stroke="none" stroke-width="1" fill="none" fill-rule="evenodd">
        <g id="About-me" transform="translate(-594.000000, -964.000000)">
            <g id="behance" transform="translate(594.000000, 964.000000)">
                <path d="M0,21 C0,9.40205 9.40205,0 21,0 C32.59795,0 42,9.40205 42,21 C42,32.59795 32.59795,42 21,42 C9.40205,42 0,32.59795 0,21 Z" id="Path" fill="#1769FF" fill-rule="nonzero"></path>
                <path d="M21.2038646,18.5392875 C21.2038646,17.729825 20.9861734,17.0360375 20.5520488,16.4552125 C19.8285377,15.5093375 18.6020818,15.024675 16.8683686,15 L10,15 L10,28.6556875 L16.4045058,28.6556875 C17.1266691,28.6556875 17.7947466,28.595925 18.4126914,28.4724625 C19.030726,28.347775 19.5648466,28.1203625 20.0179282,27.7864625 C20.420877,27.4954375 20.7562634,27.136775 21.0239975,26.7119625 C21.4472511,26.0700625 21.6582938,25.343725 21.6582938,24.5342625 C21.6582938,23.749475 21.4729463,23.081675 21.1051264,22.5334 C20.7332634,21.983725 20.1869241,21.582275 19.4620654,21.32765 C19.9394946,21.0937625 20.3005763,20.8338875 20.5466581,20.55065 C20.9861734,20.0439375 21.2038646,19.3722 21.2038646,18.5392875 Z M30.7876681,17.3361625 L24.6968965,17.3361625 L24.6968965,15.63665 L30.7876681,15.63665 L30.7876681,17.3361625 Z M25.4068411,22.607425 C25.506927,21.94995 25.7516611,21.428975 26.1397857,21.044325 C26.5279104,20.6597625 27.076945,20.4674375 27.7801514,20.4674375 C28.4292719,20.4674375 28.9715683,20.6480375 29.4123413,21.01055 C29.8478135,21.3756875 30.0939852,21.9057625 30.1439383,22.607425 L25.4068411,22.607425 Z M30.2508522,18.7627625 C30.9851445,19.0772375 31.5896127,19.5761625 32.0656044,20.257 C32.499729,20.85725 32.7782444,21.5536625 32.9053732,22.344925 C32.9797637,22.8075375 33.009502,23.4779625 32.9973731,24.3498125 L25.3391888,24.3498125 C25.3851888,25.361925 25.7476181,26.0726875 26.4400433,26.4793875 C26.8592538,26.7327 27.3636362,26.8600125 27.9559755,26.8600125 C28.5794007,26.8600125 29.0891736,26.7054 29.4799936,26.3974875 C29.6949895,26.229925 29.8843799,25.998575 30.0466376,25.7023875 L32.852635,25.7023875 C32.7782444,26.3000125 32.4374674,26.90945 31.8343468,27.5279 C30.8931446,28.5088625 29.5746888,29 27.8802372,29 C26.4805628,29 25.2459311,28.586825 24.1789477,27.75785 C23.1065737,26.9301875 22.5738008,25.58155 22.5738008,23.7157 C22.5738008,21.965525 23.0565308,20.6233625 24.020733,19.6892125 C24.9876306,18.7576 26.2385239,18.2885125 27.7788037,18.2885125 C28.6943107,18.2885125 29.5178178,18.4470625 30.2508522,18.7627625 Z M12.8331302,26.28575 L12.8331302,22.643825 L16.3329003,22.643825 C16.9414115,22.6489875 17.4160556,22.72695 17.7541373,22.8750875 C18.3586055,23.1414375 18.658863,23.6286375 18.658863,24.3407125 C18.658863,25.1800125 18.3478243,25.746575 17.7243991,26.0453875 C17.3822744,26.2051625 16.9008022,26.28575 16.2842051,26.28575 L12.8331302,26.28575 Z M12.8331302,17.37125 L12.8331302,20.3843125 L16.2895957,20.3843125 C16.904935,20.3843125 17.406622,20.2712625 17.793399,20.0451625 C18.1773908,19.81915 18.3708242,19.418925 18.3708242,18.8472 C18.3708242,18.2092375 18.1165667,17.7895875 17.6080515,17.5843125 C17.1672785,17.44265 16.6073727,17.37125 15.9271664,17.37125 L12.8331302,17.37125 Z" id="Shape" fill="#FFFFFF"></path>
            </g>
        </g>
    </g>
</svg>