<?xml version="1.0" encoding="UTF-8"?>
<svg width="40px" height="41px" viewBox="0 0 40 41" version="1.1" xmlns="http://www.w3.org/2000/svg" xmlns:xlink="http://www.w3.org/1999/xlink">
    <title>email (1)</title>
    <g id="Page-1" stroke="none" stroke-width="1" fill="none" fill-rule="evenodd">
        <g id="About-me" transform="translate(-665.000000, -965.000000)">
            <g id="Group" transform="translate(594.000000, 964.000000)">
                <g id="email-(1)" transform="translate(71.000000, 1.000000)">
                    <ellipse id="Oval" fill="#443B96" cx="20" cy="20.5" rx="20" ry="20.5"></ellipse>
                    <path d="M31.6724138,31 L9.32758621,31 C8.04415517,31 7,29.9444706 7,28.6470588 L7,13.3529412 C7,12.0555294 8.04415517,11 9.32758621,11 L31.6724138,11 C32.9558448,11 34,12.0555294 34,13.3529412 L34,28.6470588 C34,29.9444706 32.9558448,31 31.6724138,31 Z M9.32758621,11.9411765 C8.55738793,11.9411765 7.93103448,12.5743529 7.93103448,13.3529412 L7.93103448,28.6470588 C7.93103448,29.4256471 8.55738793,30.0588235 9.32758621,30.0588235 L31.6724138,30.0588235 C32.4426121,30.0588235 33.0689655,29.4256471 33.0689655,28.6470588 L33.0689655,13.3529412 C33.0689655,12.5743529 32.4426121,11.9411765 31.6724138,11.9411765 L9.32758621,11.9411765 Z" id="Shape" fill="#FFFFFF" fill-rule="nonzero"></path>
                    <path d="M20,23 C19.7247198,23 19.4492116,22.9057342 19.2117909,22.7172026 L7.22877813,14.9588957 C7.01051538,14.8173686 6.93525236,14.5034917 7.06069073,14.2574246 C7.18658523,14.0116143 7.46528647,13.9276227 7.68354922,14.0681224 L19.7292812,21.871122 C19.8914388,22.0049435 20.1083331,22.0049435 20.2704907,21.871122 L20.3133678,21.8395289 L32.3164508,14.0681224 C32.5353977,13.9273658 32.8138709,14.0116143 32.9393093,14.2574246 C33.0647476,14.5034917 32.9894846,14.8176254 32.7712219,14.9588957 L20.7882091,22.7172026 C20.5507884,22.9057342 20.2752802,23 20,23 Z" id="Path" fill="#FFFFFF" fill-rule="nonzero"></path>
                </g>
            </g>
        </g>
    </g>
</svg>