<?xml version="1.0" encoding="UTF-8"?>
<svg width="89px" height="88px" viewBox="0 0 89 88" version="1.1" xmlns="http://www.w3.org/2000/svg" xmlns:xlink="http://www.w3.org/1999/xlink">
    <title>github</title>
    <g id="Page-1" stroke="none" stroke-width="1" fill="none" fill-rule="evenodd">
        <g id="github" fill="#000000" fill-rule="nonzero">
            <path d="M44,1.08548 C22.4198119,1.08637487 4.02505098,16.7372889 0.568186102,38.0388054 C-2.88867878,59.3403217 9.6126723,80.0051362 30.085088,86.830436 C32.285088,87.215524 33.110088,85.895568 33.110088,84.740436 C33.110088,83.69548 33.055044,80.230436 33.055044,76.54548 C22,78.580436 19.14,73.850612 18.26,71.375612 C17.2835332,68.9684815 15.7356122,66.8353257 13.75,65.16048 C12.21,64.33548 10.01,62.30048 13.694956,62.245568 C16.5505838,62.5554336 19.0755685,64.2386965 20.46,66.755436 C21.6754181,68.9388546 23.70983,70.5487855 26.1141432,71.2298406 C28.5184563,71.9108951 31.0949658,71.6070707 33.274912,70.385436 C33.4653926,68.148575 34.4622942,66.0571648 36.08,64.500612 C26.29,63.400612 16.06,59.605436 16.06,42.775612 C15.9981699,38.4026522 17.6118155,34.1717523 20.57,30.950612 C19.2248399,27.1499776 19.382233,22.9790604 21.01,19.290612 C21.01,19.290612 24.694868,18.135568 33.11,23.800612 C40.3096675,21.8204945 47.9103325,21.8204945 55.11,23.800612 C63.524912,18.080612 67.21,19.290612 67.21,19.290612 C68.8379879,22.9790095 68.9953841,27.1500118 67.65,30.950612 C70.6170927,34.1662391 72.2321468,38.4008331 72.16,42.775612 C72.16,59.66048 61.874912,63.400612 52.085,64.500612 C54.2097273,66.6541403 55.2936109,69.6247849 55.055,72.640612 C55.055,78.5257 54.999956,83.255524 54.999956,84.740612 C54.999956,85.895656 55.824956,87.270612 58.024956,86.830612 C78.4596378,79.9501901 90.9036106,59.2816757 87.4230725,38.0025243 C83.942535,16.7233731 65.5619178,1.09670218 44,1.08548 Z" id="Path"></path>
        </g>
    </g>
</svg>