<?xml version="1.0" encoding="UTF-8"?>
<svg width="96px" height="88px" viewBox="0 0 96 88" version="1.1" xmlns="http://www.w3.org/2000/svg" xmlns:xlink="http://www.w3.org/1999/xlink">
    <title>gitlab</title>
    <g id="Page-1" stroke="none" stroke-width="1" fill="none" fill-rule="evenodd">
        <g id="gitlab" fill-rule="nonzero">
            <polygon id="Path" fill="#E24329" points="47.7743063 87.977825 65.3590153 33.8581057 30.189224 33.8581057 47.773933 87.977825"></polygon>
            <polygon id="Path" fill="#FC6D26" points="47.7743063 87.9774517 30.189224 33.8577324 5.54509666 33.8577324"></polygon>
            <path d="M5.54509666,33.8577324 L0.201441681,50.3045721 C-0.285975691,51.8045176 0.247846814,53.4477324 1.52372937,54.3748439 L47.7743063,87.977825 L5.54472334,33.8577324 L5.54509666,33.8577324 Z" id="Path" fill="#FCA326"></path>
            <path d="M5.54509666,33.8581057 L30.189224,33.8581057 L19.5986031,1.26195971 C19.0535608,-0.415352139 16.6807599,-0.414978823 16.1360909,1.26195971 L5.54509666,33.8581057 Z" id="Path" fill="#E24329"></path>
            <polygon id="Path" fill="#FC6D26" points="47.7743063 87.9774517 65.3590153 33.8577324 90.003516 33.8577324 47.773933 87.9774517"></polygon>
            <path d="M90.003516,33.8577324 L95.3471709,50.3045721 C95.8345095,51.8045984 95.3005301,53.4478323 94.0245099,54.3748439 L47.7743063,87.977825 L90.003516,33.8577324 L90.003516,33.8577324 Z" id="Path" fill="#FCA326"></path>
            <path d="M90.003516,33.8581057 L65.3590153,33.8581057 L75.9500095,1.26195971 C76.4950519,-0.415352139 78.8678527,-0.414978823 79.4125217,1.26195971 L90.003516,33.8581057 Z" id="Path" fill="#E24329"></path>
        </g>
    </g>
</svg>