<?xml version="1.0" encoding="UTF-8"?>
<svg width="42px" height="44px" viewBox="0 0 42 44" version="1.1" xmlns="http://www.w3.org/2000/svg" xmlns:xlink="http://www.w3.org/1999/xlink">
    <title>linkedin</title>
    <g id="Page-1" stroke="none" stroke-width="1" fill="none" fill-rule="evenodd">
        <g id="About-me" transform="translate(-804.000000, -964.000000)" fill-rule="nonzero">
            <g id="Group" transform="translate(594.000000, 964.000000)">
                <g id="linkedin" transform="translate(210.000000, 0.000000)">
                    <path d="M42,21 C42,32.597544 32.597544,42 21,42 C9.402372,42 0,32.597544 0,21 C0,9.402372 9.402372,0 21,0 C32.597544,0 42,9.402372 42,21 Z" id="Path" fill="#0A7BBA"></path>
                    <path d="M34,22.0995067 L34,31 L29.06923,31 L29.06923,22.6969485 C29.06923,20.6113852 28.358162,19.1871612 26.5714562,19.1871612 C25.210467,19.1871612 24.400541,20.1472646 24.0432329,21.0755057 C23.9121924,21.4062186 23.8798449,21.8665398 23.8798449,22.33256 L23.8798449,31 L18.947342,31 C18.947342,31 19.0137699,16.9362414 18.947342,15.4803277 L23.8798449,15.4803277 L23.8798449,17.6803021 C23.8709328,17.6972264 23.8565744,17.7138915 23.8474973,17.7308157 L23.8798449,17.7308157 L23.8798449,17.6803021 C24.5352949,16.6245251 25.7041794,15.1155937 28.3239991,15.1155937 C31.5687367,15.1155937 34,17.3345647 34,22.0995067 L34,22.0995067 Z M13.7903869,8 C12.1024566,8 11,9.15930831 11,10.6812783 C11,12.1712131 12.0701916,13.3622975 13.7257743,13.3622975 L13.7563064,13.3622975 C15.4765018,13.3622975 16.5466933,12.1712994 16.5466933,10.6812783 C16.5143458,9.15939466 15.4765018,8 13.7903869,8 L13.7903869,8 Z M11.2926956,31 L16.2216502,31 L16.2216502,15.4803277 L11.2926956,15.4803277 L11.2926956,31 L11.2926956,31 Z" id="Shape" fill="#F2F2F2"></path>
                </g>
            </g>
        </g>
    </g>
</svg>