<?xml version="1.0" encoding="UTF-8"?>
<svg width="41px" height="42px" viewBox="0 0 41 42" version="1.1" xmlns="http://www.w3.org/2000/svg" xmlns:xlink="http://www.w3.org/1999/xlink">
    <title>medium</title>
    <g id="Page-1" stroke="none" stroke-width="1" fill="none" fill-rule="evenodd">
        <g id="About-me" transform="translate(-734.000000, -964.000000)">
            <g id="Group" transform="translate(594.000000, 964.000000)">
                <g id="medium" transform="translate(140.000000, 0.000000)">
                    <path d="M20.5,42 C31.8218083,42 41,32.59795 41,21 C41,9.40205 31.8218083,0 20.5,0 C9.17819167,0 0,9.40205 0,21 C0,32.59795 9.17819167,42 20.5,42 Z" id="Path" fill="#12100E"></path>
                    <path d="M10.2016938,14.6919115 C10.2351906,14.3362962 10.1087969,13.9848385 9.861325,13.7454615 L7.340335,10.4868038 L7.340335,10 L15.1680906,10 L21.2184531,24.2380615 L26.5377906,10 L34,10 L34,10.4868038 L31.8445563,12.7042692 C31.6586781,12.8562462 31.5665406,13.1060615 31.6050156,13.3533115 L31.6050156,29.6466885 C31.5665406,29.8939385 31.6586781,30.1437538 31.8445563,30.2957308 L33.9495437,32.5131962 L33.9495437,33 L23.361325,33 L23.361325,32.5131962 L25.5419969,30.2415923 C25.7563094,30.0117692 25.7563094,29.9441846 25.7563094,29.59255 L25.7563094,16.4226615 L19.6932906,32.94595 L18.873925,32.94595 L11.8151125,16.4226615 L11.8151125,27.4968077 C11.7563031,27.9623808 11.9004156,28.43105 12.2058531,28.7678231 L15.0420344,32.4591462 L15.0420344,32.94595 L7,32.94595 L7,32.4591462 L9.83609687,28.7678231 C10.139425,28.4305192 10.2751,27.9586654 10.2016938,27.4968077 L10.2016938,14.6919115 Z" id="Path" fill="#FFFFFF" fill-rule="nonzero"></path>
                </g>
            </g>
        </g>
    </g>
</svg>