<?xml version="1.0" encoding="UTF-8"?>
<svg width="1408px" height="768px" viewBox="0 0 1408 768" version="1.1" xmlns="http://www.w3.org/2000/svg" xmlns:xlink="http://www.w3.org/1999/xlink">
    <title>Group 2</title>
    <defs>
        <rect id="path-1" x="1.28550488e-13" y="0" width="1407.5477" height="768"></rect>
    </defs>
    <g id="Page-1" stroke="none" stroke-width="1" fill="none" fill-rule="evenodd">
        <g id="Group-2" transform="translate(-0.000000, 0.000000)">
            <mask id="mask-2" fill="white">
                <use xlink:href="#path-1"></use>
            </mask>
            <g id="Mask"></g>
            <g mask="url(#mask-2)" id="blob-(5)-copy">
                <g transform="translate(-88.650177, -175.491166)">
                    <g transform="translate(171.945159, 195.392226) scale(-1, 1) translate(-171.945159, -195.392226) ">
                        <path d="M284.205528,66.9480703 C317.141531,105.803921 336.952661,151.589477 342.400722,203.067292 C347.848782,254.545106 338.933774,311.2202 305.997771,345.62124 C273.061768,380.02228 216.352409,392.149265 160.881245,390.664328 C105.410082,389.179391 51.4247534,374.330021 24.18445,339.928982 C-3.05585341,305.527942 -3.55113166,251.575232 4.62095937,205.789676 C12.5454113,159.75663 29.1372324,121.890738 56.3775358,83.0348874 C83.6178393,44.1790369 121.506625,4.33322843 163.357637,0.373396537 C205.456287,-3.83392485 251.269525,28.0922198 284.205528,66.9480703 Z" id="Path" fill="#6C5BFC" fill-rule="nonzero"></path>
                    </g>
                </g>
            </g>
            <g id="Group" mask="url(#mask-2)">
                <g transform="translate(1000.000000, 12.000000)">
                    <g id="blob-(6)" transform="translate(42.662058, -0.000000)">
                        <path d="M272.643765,32.0637237 C306.137082,54.7329806 334.116255,93.7404406 338.405033,136.832451 C342.489584,180.12869 322.88374,227.305251 289.390423,257.939382 C255.897107,288.369286 208.720545,302.256758 165.220079,298.376435 C121.719614,294.496112 82.0994709,273.05222 52.0780226,242.418089 C21.8523467,211.988186 1.0211377,172.368043 0.408455079,132.135218 C-0.204227539,91.9023928 19.1973887,50.8526573 49.4230645,28.1834004 C79.4445128,5.30991603 120.494248,0.612682618 160.318618,1.63382032 C200.347216,2.65495801 239.354676,9.19023928 272.643765,32.0637237 Z" id="Path" fill="#A89EFF" fill-rule="nonzero"></path>
                    </g>
                    <g id="blob-(5)" transform="translate(0.000000, 58.092490)">
                        <path d="M248.214435,58.4699304 C276.979503,92.405171 294.2818,132.392556 299.039932,177.351346 C303.798063,222.310137 296.01203,271.808035 267.246961,301.852611 C238.481893,331.897187 188.954069,342.488441 140.507638,341.191553 C92.061207,339.894664 44.9124484,326.925783 21.1217904,296.881207 C-2.66886761,266.836631 -3.10142503,219.71636 4.03577237,179.728975 C10.9566911,139.525441 25.4473646,106.454793 49.2380226,72.5195523 C73.0286806,38.5843117 106.119323,3.78447898 142.670425,0.326110513 C179.437805,-3.34840598 219.449367,24.5346898 248.214435,58.4699304 Z" id="Path" fill="#6C5BFC" fill-rule="nonzero"></path>
                    </g>
                </g>
            </g>
        </g>
    </g>
</svg>