<?xml version="1.0" encoding="UTF-8"?>
<svg width="75px" height="33px" viewBox="0 0 75 33" version="1.1" xmlns="http://www.w3.org/2000/svg" xmlns:xlink="http://www.w3.org/1999/xlink">
    <title>Dots Back</title>
    <g id="Page-1" stroke="none" stroke-width="1" fill="none" fill-rule="evenodd" fill-opacity="0.5">
        <g id="About-me" transform="translate(-951.000000, -399.000000)" fill="#D8D8D8">
            <g id="Dots-Back" transform="translate(988.500000, 415.500000) rotate(90.000000) translate(-988.500000, -415.500000) translate(972.000000, 378.000000)">
                <circle id="Oval" cx="2.5" cy="2.5" r="2.5"></circle>
                <circle id="Oval" cx="16.5" cy="2.5" r="2.5"></circle>
                <circle id="Oval" cx="30.5" cy="2.5" r="2.5"></circle>
                <circle id="Oval" cx="2.5" cy="16.5" r="2.5"></circle>
                <circle id="Oval" cx="16.5" cy="16.5" r="2.5"></circle>
                <circle id="Oval" cx="30.5" cy="16.5" r="2.5"></circle>
                <circle id="Oval" cx="2.5" cy="30.5" r="2.5"></circle>
                <circle id="Oval" cx="16.5" cy="30.5" r="2.5"></circle>
                <circle id="Oval" cx="30.5" cy="30.5" r="2.5"></circle>
                <circle id="Oval" cx="2.5" cy="44.5" r="2.5"></circle>
                <circle id="Oval" cx="16.5" cy="44.5" r="2.5"></circle>
                <circle id="Oval" cx="30.5" cy="44.5" r="2.5"></circle>
                <circle id="Oval" cx="2.5" cy="58.5" r="2.5"></circle>
                <circle id="Oval" cx="16.5" cy="58.5" r="2.5"></circle>
                <circle id="Oval" cx="30.5" cy="58.5" r="2.5"></circle>
                <circle id="Oval" cx="2.5" cy="72.5" r="2.5"></circle>
                <circle id="Oval" cx="16.5" cy="72.5" r="2.5"></circle>
                <circle id="Oval" cx="30.5" cy="72.5" r="2.5"></circle>
            </g>
        </g>
    </g>
</svg>